HIERARCHY
ROOT Hips
{
  OFFSET 0 0 0
  CHANNELS 6 Xposition Yposition Zposition Zrotation Yrotation Xrotation
  JOINT LeftThigh
  {
    OFFSET 8.409438 0 -5.917753
    CHANNELS 3 Zrotation Yrotation Xrotation
    JOINT LeftLeg
    {
      OFFSET 0 0 -42.358652
      CHANNELS 3 Zrotation Yrotation Xrotation
      JOINT LeftFoot
      {
        OFFSET 0 0 -39.357303
        CHANNELS 3 Zrotation Yrotation Xrotation
      }
    }
  }
  JOINT RightThigh
  {
    OFFSET -8.409438 0 -5.917753
    CHANNELS 3 Zrotation Yrotation Xrotation
    JOINT RightLeg
    {
      OFFSET 0 0 -42.358652
      CHANNELS 3 Zrotation Yrotation Xrotation
      JOINT RightFoot
      {
        OFFSET 0 0 -39.357303
        CHANNELS 3 Zrotation Yrotation Xrotation
      }
    }
  }
  JOINT SpineLow
  {
    OFFSET 0 0 4.719101
    CHANNELS 3 Zrotation Yrotation Xrotation
    JOINT SpineMid
    {
      OFFSET 0 0 12.899191
      CHANNELS 3 Zrotation Yrotation Xrotation
      JOINT Chest
      {
        OFFSET 0 0 12.899191
        CHANNELS 3 Zrotation Yrotation Xrotation
        JOINT LeftShoulder
        {
          OFFSET 7.550562 1.41573 9.438202
          CHANNELS 3 Zrotation Yrotation Xrotation
          JOINT LeftArm
          {
            OFFSET 9.155056 0 4.247191
            CHANNELS 3 Zrotation Yrotation Xrotation
            JOINT LeftForearm
            {
              OFFSET 0 0 25.771955
              CHANNELS 3 Zrotation Yrotation Xrotation
              JOINT LeftHand
              {
                OFFSET 0 0 25.197169
                CHANNELS 3 Zrotation Yrotation Xrotation
              }
            }
          }
        }
        JOINT RightShoulder
        {
          OFFSET -7.550562 1.41573 9.438202
          CHANNELS 3 Zrotation Yrotation Xrotation
          JOINT RightArm
          {
            OFFSET -9.155056 0 4.247191
            CHANNELS 3 Zrotation Yrotation Xrotation
            JOINT RightForearm
            {
              OFFSET 0 0 -25.771955
              CHANNELS 3 Zrotation Yrotation Xrotation
              JOINT RightHand
              {
                OFFSET 0 0 -25.197169
                CHANNELS 3 Zrotation Yrotation Xrotation
              }
            }
          }
        }
        JOINT Neck
        {
          OFFSET 0 0 15.101124
          CHANNELS 3 Zrotation Yrotation Xrotation
          JOINT Head
          {
            OFFSET 0 0 11.325843
            CHANNELS 3 Zrotation Yrotation Xrotation
            End Site
            {
              OFFSET 0 0 14.157303
            }
          }
        }
      }
    }
  }
}
MOTION
Frames: 8
Frame Time: 0.0
0.0  101.685394  0.0  4.670894  21.100077  -99.441796  11.599627  -18.733253  -58.827175  31.863511  38.249264  113.306335  -15.599547  -3.142961  -0.932438  -34.127779  -1.121305  -23.829453  2.662093  10.942532  29.435059  33.879985  1.604736  12.101976  -9.032655  1.276194  0.904871  -24.662688  3.767109  1.96343  -24.66269  3.767109  1.963431  16.180865  33.748518  23.644088  176.208007  59.682142  -144.577797  -66.021814  -44.472717  102.894693  70.729744  12.763969  17.285964  43.346813  -0.863236  45.218487  133.680049  43.981818  37.633684  -17.919021  29.373006  -64.540968  66.749016  6.630271  65.350312  11.025034  -0.165725  -5.181975  8.268072  -0.217899  -3.88499  
0.0  101.685394  0.0  4.572386  21.954975  -98.700028  8.750716  -18.886326  -54.621143  30.036791  36.615509  111.627891  -15.122735  -2.699846  -0.870984  -34.147622  -1.373889  -24.149093  1.541297  11.102103  29.079932  34.01262  1.55175  12.270569  -9.197008  1.225768  0.754006  -25.120695  3.578808  1.566518  -25.120695  3.578808  1.566519  16.419085  33.281242  23.576511  176.106443  60.0132  -144.943729  -65.677005  -44.724296  102.439752  70.612539  12.508786  17.482709  43.244896  -1.157275  45.347392  134.855832  44.538928  38.661061  -19.365806  28.966967  -65.04319  67.049681  7.049042  65.06758  11.101081  -0.270232  -4.726375  8.324299  -0.288677  -3.541252  
0.0  101.685394  0.0  4.595283  22.648151  -97.960939  6.348821  -18.722446  -50.176084  27.966553  35.0148  109.780469  -14.67803  -2.375657  -0.896106  -34.746813  -1.726512  -25.02691  1.187662  11.205791  29.234144  34.107776  1.524604  12.349015  -9.324418  1.201582  0.573699  -25.478564  3.447428  1.083599  -25.478564  3.447428  1.083599  16.471184  32.931841  23.657685  176.580456  60.367488  -145.085854  -65.211076  -44.816136  101.920733  70.203307  12.282678  17.545332  42.996248  -1.492442  45.457828  135.004748  45.095085  38.893924  -20.23666  29.046446  -65.707853  66.988375  7.532571  64.54905  11.115501  -0.395357  -4.165564  8.33436  -0.372463  -3.118193  
0.0  101.685394  0.0  4.694563  23.218853  -97.235731  4.151517  -18.641751  -45.748102  26.261178  33.488547  107.987482  -14.261387  -2.090366  -0.928825  -35.25538  -2.001267  -25.808009  1.641558  10.841894  29.924052  33.335845  1.761931  12.019386  -9.416487  1.16264  0.445432  -25.736342  3.294465  0.748825  -25.736343  3.294465  0.748825  16.283696  32.826756  23.556593  177.466866  60.693342  -144.805709  -64.596024  -44.600301  101.518689  69.699581  12.228615  17.500044  42.736125  -1.596005  45.246247  134.091047  45.720925  38.359368  -21.283833  29.398043  -66.562729  66.844175  8.087521  62.641563  11.056546  -0.444802  -3.861728  8.289953  -0.403655  -2.889356  
0.0  101.685394  0.0  4.825881  23.633564  -96.459274  1.802951  -18.988582  -41.432321  25.270376  31.980035  106.299832  -13.711229  -1.678924  -0.97962  -35.608821  -2.284838  -26.496099  1.229069  10.941313  29.800498  33.479875  1.724446  12.082435  -9.439844  1.148826  0.372622  -25.803501  3.229403  0.557271  -25.8035  3.229403  0.557271  15.542235  32.591579  23.114733  178.75033  60.978164  -144.06879  -63.760431  -44.000964  101.051237  69.307926  12.331775  17.510653  42.029907  -1.714734  44.505463  132.582423  46.346972  37.270512  -21.448196  29.299122  -67.884408  66.948805  9.023281  61.689799  10.830531  -0.605045  -3.812467  8.119426  -0.521577  -2.849661  
0.0  101.685394  0.0  4.964466  23.791434  -95.823822  -0.708456  -19.333019  -36.934951  24.566049  30.143769  104.526195  -13.227003  -1.25654  -1.158838  -35.663922  -2.450584  -26.963007  0.920994  10.959601  29.694467  33.460874  1.718539  12.071493  -9.441103  1.118676  0.314872  -25.809102  3.126132  0.413651  -25.809102  3.126132  0.413651  15.252934  32.448581  22.834524  179.73664  61.05648  -143.202052  -62.819219  -43.001774  100.719883  68.929514  12.601967  17.566049  41.592721  -1.701041  43.83792  130.585036  47.139911  35.936431  -21.329311  28.564364  -69.410127  67.229986  10.125733  59.06748  10.683457  -0.650114  -3.813976  8.008823  -0.554496  -2.850119  
0.0  101.685394  0.0  4.991639  23.840463  -95.316133  -3.142761  -19.392048  -32.340162  23.759523  28.042502  102.50952  -12.800562  -0.925396  -1.409999  -35.649179  -2.641286  -27.223404  0.515706  11.049579  29.410158  33.511755  1.639246  12.085954  -9.488612  1.052981  0.25996  -25.940276  2.928476  0.289353  -25.940276  2.928476  0.289353  15.010995  32.44198  22.359743  -179.341429  60.817744  -142.504926  -61.964025  -41.71705  100.55719  68.347042  13.051934  17.678057  41.424732  -1.485657  43.315797  128.746023  47.916953  34.667627  -21.103365  27.348473  -70.890916  68.005584  11.708311  58.470485  10.775182  -0.572802  -3.840087  8.078101  -0.497525  -2.870999  
0.0  101.685394  0.0  5.173342  23.667163  -95.435723  -5.59359  -18.994715  -27.214219  23.062792  25.699325  100.344735  -12.340793  -0.571738  -1.605724  -35.474568  -2.311522  -26.978752  0.088036  11.149528  29.114264  33.532881  1.595664  12.074345  -9.511507  1.071331  0.273181  -26.002664  2.982886  0.316701  -26.002663  2.982885  0.316701  14.958394  32.326643  21.838452  -178.151797  59.582521  -142.176601  -60.935877  -39.852837  101.439697  67.585363  13.606286  17.899582  42.616506  -1.584866  43.29076  125.754492  49.457047  33.261596  -20.81388  25.782841  -72.324996  68.955544  13.354688  58.110122  11.045421  -0.48957  -3.823738  8.28134  -0.436488  -2.860045  
